<?xml version="1.0" standalone="no"?>
<!DOCTYPE svg PUBLIC "-//W3C//DTD SVG 20010904//EN"
 "http://www.w3.org/TR/2001/REC-SVG-20010904/DTD/svg10.dtd">
<svg version="1.0" xmlns="http://www.w3.org/2000/svg"
 width="176.000000pt" height="163.000000pt" viewBox="0 0 176.000000 163.000000"
 preserveAspectRatio="xMidYMid meet">

<g transform="translate(0.000000,163.000000) scale(0.100000,-0.100000)"
fill="#306082" stroke="none">
<path d="M155 1441 c-40 -17 -60 -51 -60 -101 0 -57 21 -85 74 -100 22 -6 283
-10 684 -10 696 0 695 0 731 51 26 38 21 93 -13 131 l-29 33 -684 2 c-376 1
-692 -2 -703 -6z"/>
<path d="M141 896 c-68 -38 -66 -152 4 -184 19 -9 201 -12 710 -12 l684 0 26
23 c28 24 42 79 31 122 -4 14 -21 34 -39 45 -31 19 -53 20 -712 20 -545 -1
-685 -3 -704 -14z"/>
<path d="M131 344 c-36 -30 -49 -81 -31 -125 26 -62 -12 -59 748 -59 l694 0
29 29 c48 49 34 142 -26 169 -19 9 -200 12 -705 12 l-678 0 -31 -26z"/>
</g>
</svg>
