<svg width="984" height="198" viewBox="0 0 984 198" fill="none" xmlns="http://www.w3.org/2000/svg">
<g clip-path="url(#clip0_2524_322)">
<path fill-rule="evenodd" clip-rule="evenodd" d="M203.874 5.80561C278.164 5.80561 340.305 23.2334 404.183 41.156C434.406 49.6335 463.555 59.1336 494.023 67.3362C561.824 85.5777 631.169 96.6061 703.885 94.4071C804.473 91.3723 897.736 66.9074 984 23.7282V0C876.821 64.9282 732.575 91.1194 601.59 74.8131C559.832 69.6233 528.935 63.1469 491.448 53.7568C487.3 52.7123 483.826 51.7337 479.77 50.7661C457.302 45.3783 433.169 38.2752 410.395 32.6125C379.059 24.8278 348.612 17.4718 314.547 11.9191C285.551 7.19103 256.054 4.50814 225.484 4.55212L207.318 5.38778C206.327 5.38778 204.814 5.3218 203.895 5.8166L203.874 5.80561Z" fill="url(#paint0_linear_2524_322)"/>
<path fill-rule="evenodd" clip-rule="evenodd" d="M-0.00011006 52.2395L19.8111 43.674C38.9479 35.5923 54.4168 31.0842 74.606 26.0703C94.7033 21.0783 124.916 16.933 146.893 17.01C150.152 17.01 151.123 16.5812 154.229 16.5702L183.307 17.7577C207.113 19.8688 224.217 21.9909 247.267 27.6316C255.267 29.5888 262.991 31.645 270.256 33.943C313.423 47.6104 354.568 64.3675 392.924 86.1165C491.867 136.575 565.176 184.273 669.003 196.632C776.131 204.329 889.317 178.599 983.99 143.315V80.4758C862.977 132.99 711.599 165.185 560.169 121.379C513.456 107.866 471.984 90.8445 428.163 72.3172C387.478 55.1093 338.782 35.8562 295.523 23.8052C270.521 16.8341 245.387 11.3803 218.843 8.48851C214.919 8.05968 191.205 6.57529 190.183 6.22344C187.077 6.22344 186.29 5.79462 183.236 5.79462L160.615 6.22344C155.649 6.19045 151.102 6.88317 146.372 7.0591C129.769 7.66385 96.43 14.0962 82.32 18.0985C74.3915 20.3416 67.2803 22.4088 59.9035 24.8937C48.7054 28.6542 28.8533 36.8018 18.7281 41.9697C15.4585 43.641 1.4303 50.5791 -0.0307617 52.2614L-0.00011006 52.2395Z" fill="url(#paint1_linear_2524_322)"/>
<path fill-rule="evenodd" clip-rule="evenodd" d="M190.204 6.21245C191.225 6.5643 214.929 8.04869 218.863 8.47751C245.407 11.3693 270.552 16.8341 295.543 23.7942C338.793 35.8452 387.498 55.0983 428.183 72.3062C471.995 90.8335 513.466 107.855 560.19 121.368C711.619 165.174 862.997 132.979 984.01 80.4648V23.7392C905.399 63.081 820.974 86.8862 730.49 93.0986C722.388 93.6924 713.683 94.1212 703.895 94.4181C631.169 96.6172 561.835 85.5887 494.033 67.3472C463.565 59.1446 434.416 49.6445 404.193 41.167C340.315 23.2334 278.164 5.80562 203.885 5.80562C199.45 5.80562 193.851 5.44277 190.214 6.22344L190.204 6.21245Z" fill="url(#paint2_linear_2524_322)"/>
</g>
<defs>
<linearGradient id="paint0_linear_2524_322" x1="210.035" y1="-2.79283" x2="988.516" y2="52.2876" gradientUnits="userSpaceOnUse">
<stop stop-color="#BBE2F5"/>
<stop offset="0.95" stop-color="#BBE2F5"/>
</linearGradient>
<linearGradient id="paint1_linear_2524_322" x1="-1.124" y1="70.437" x2="984.732" y2="131.673" gradientUnits="userSpaceOnUse">
<stop stop-color="#0F82C5"/>
<stop offset="1" stop-color="#0F82C5"/>
</linearGradient>
<linearGradient id="paint2_linear_2524_322" x1="492.337" y1="20.4846" x2="927.583" y2="91.9667" gradientUnits="userSpaceOnUse">
<stop stop-color="#6CC6F0"/>
<stop offset="0.96" stop-color="#6CC6F0"/>
</linearGradient>
<clipPath id="clip0_2524_322">
<rect width="984" height="198" fill="white"/>
</clipPath>
</defs>
</svg>
