<?xml version="1.0" encoding="UTF-8"?>
<svg id="Camada_2" xmlns="http://www.w3.org/2000/svg" viewBox="0 0 61.79 50.86">
  <defs>
    <style>
      .cls-1 {
        fill: #1159a4;
      }
    </style>
  </defs>
  <g id="nossa_hisÉ_atendimento_humanizado_x2C__suporte_on_lineoria">
    <path class="cls-1" d="M46.53,0l-5.26,5.26c-.26-.04-.53-.06-.79-.08-1.88-.76-5.24-1.3-9.17,1.73l-.09.08-1.29,1.3c-4.86-3.3-8.72-1.27-9.81-.55l-4.84-4.84L0,18.16l5.79,5.79c.05,2.59.97,5.25,2.76,7.94.74,1.11,1.6,2.13,2.53,3.07,1.19,1.21,2.4,2.4,3.6,3.6-1.3,1.9-.74,3.47.61,4.88,1.41,1.47,2.71,1.64,4.62,1.09.02,0,.03,0,.04.02,1.37,2.05,2.63,3.05,4,3.15.57.55,1.13,1.11,1.69,1.65,1.69,1.63,4.25,1.99,6.29.83.88-.5,1.03-.92,1.48-1.63,3.44,2.88,5.73,2.94,8.43-1.11,0-.01.03-.02.04-.02,1.91.55,3.21.38,4.62-1.08,1.43-1.49,1.98-3.16.38-5.21-.01-.02-.43-.55-.41-.55,1.14.04,2.05-.69,2.55-1.34,1.33-1.72,1.25-3.52-.18-5.3.62-.63,1.25-1.25,1.88-1.88.93-.95,1.8-1.97,2.53-3.07,1.79-2.69,2.71-5.35,2.76-7.94l5.79-5.79L46.53,0ZM12.01,32.74c-1.76-1.86-3.07-3.9-3.65-6.23-.13-.52-.22-1.05-.27-1.59-.04-.45-.06-.9-.04-1.37l-5.87-5.87L14.79,5.07l4.05,4.05.27.27-.02.04,1.95.16.13-.32c.77-.52,3.97-2.3,8.24.96l5.65,5.68c.28.29.44.67.44,1.07,0,.41-.16.79-.44,1.07l-.37.37c-.59.59-1.55.59-2.14,0l-5.78-5.81-1.4.98,1.56,1.83.68.68c-.66.66-1.33,1.33-1.99,1.99-.17.17-.26.34-.31.53-.03.03-.07.07-.1.1-3.88,3.89-7.78,7.77-11.66,11.67-.77.78-1.28,1.57-1.53,2.35ZM30.74,48.49c-.45.42-.91.69-1.58.63-.92-.07-1.56-.78-2.01-1.22-.27-.27-.54-.54-.82-.81.64-.34,1.32-.82,2.05-1.43.45.71.6,1.13,1.48,1.63.39.23.81.39,1.23.5-.07.29-.19.54-.35.69ZM39.07,47.71c-.87,1.02-1.86,1.11-3.13-.07-.2-.18-.39-.37-.58-.55.28-.18.54-.39.79-.62.73-.7,1.44-1.41,2.16-2.11.08.08.15.15.23.23,1.19,1.19,1.35,2.16.53,3.13ZM45.11,44.55c-.88,1.2-2.21,1.22-3.41.03-.6-.59-1.19-1.19-1.78-1.79.98-.96,1.97-1.91,2.95-2.88.55.55,1.11,1.1,1.66,1.66,1.07,1.07,1.25,2.08.59,2.97ZM47.55,37.47c-.44,1.11-1.77,1.64-2.82,1.06-.1-.06-.2-.12-.3-.19.95-.94,1.88-1.88,2.82-2.83.41.54.62,1.14.29,1.95ZM53.75,20.66c.01.47,0,.92-.04,1.37-.05.55-.14,1.08-.27,1.59-.58,2.33-1.9,4.39-3.67,6.25-2.4,2.52-4.91,4.94-7.37,7.4-2.58,2.58-5.15,5.18-7.76,7.74-.45.44-1.09,1.15-2.01,1.22-.67.05-1.13-.21-1.57-.63-.4-.38-.53-1.34-.38-1.94.17-.65.74-1.24,1.24-1.75,1.18-1.21,2.38-2.39,3.57-3.58.58-.58,1.16-1.16,1.73-1.75.61-.63,2.38-1.95,1.39-2.88-.91-.85-2.22.79-2.77,1.35-.58.58-1.16,1.16-1.75,1.74-2.73,2.67-5.43,5.38-8.23,7.97-1.27,1.17-2.26,1.09-3.13.07-.82-.96-.66-1.93.53-3.12,3.1-3.1,6.2-6.2,9.29-9.3.44-.44.81-.72.89-1.38.06-.49-.12-.92-.63-1-.85-.13-1.22.2-1.77.75-3.65,3.64-7.29,7.29-10.94,10.93-1.2,1.19-2.54,1.17-3.41-.03-.65-.89-.47-1.9.59-2.97,3.7-3.71,7.41-7.42,11.12-11.12.61-.6,1.08-1.28.34-1.97-.71-.66-1.32-.08-1.86.47-2.85,2.86-5.71,5.72-8.57,8.57-.38.38-.78.77-1.25,1.02-1.05.58-2.37.05-2.82-1.06-.46-1.14.13-1.86.85-2.59,4.74-4.72,9.48-9.45,14.18-14.21l1.94,1.95c.66.66,1.53,1,2.4,1s1.73-.33,2.39-.98l.37-.37c.64-.64.99-1.49,1-2.39,0-.85-.32-1.65-.88-2.27l-4.3-4.35h0l-.85-.85,1.15-1.15c1.78-1.36,3.37-1.83,4.68-1.9,2.4-.22,4.52,1.04,4.52,1.04l1.27-1.27,4.04-4.05,12.62,12.62-5.87,5.87Z"/>
  </g>
</svg>