<?xml version="1.0" standalone="no"?>
<!DOCTYPE svg PUBLIC "-//W3C//DTD SVG 20010904//EN"
 "http://www.w3.org/TR/2001/REC-SVG-20010904/DTD/svg10.dtd">
<svg version="1.0" xmlns="http://www.w3.org/2000/svg"
 width="1380.000000pt" height="693.000000pt" viewBox="0 0 1380.000000 693.000000"
 preserveAspectRatio="xMidYMid meet">

<g transform="translate(0.000000,693.000000) scale(0.100000,-0.100000)"
fill="#225291" stroke="none">
<path d="M10945 6265 c-135 -24 -219 -87 -272 -204 -32 -71 -34 -79 -34 -190
0 -100 4 -124 25 -176 34 -84 84 -138 164 -177 62 -31 75 -33 184 -37 98 -2
129 0 186 18 38 11 75 27 81 35 8 9 11 69 9 197 l-3 184 -155 0 -155 0 -1 -37
c-1 -20 2 -41 5 -47 4 -5 40 -11 81 -13 l75 -3 3 -98 c3 -97 3 -97 -23 -107
-15 -6 -54 -10 -88 -10 -151 1 -240 102 -241 275 0 100 24 163 83 218 60 56
110 71 208 64 52 -4 91 -14 135 -35 35 -16 66 -28 71 -25 4 2 7 26 7 52 0 54
-12 70 -72 94 -32 13 -173 39 -196 36 -4 0 -39 -7 -77 -14z"/>
<path d="M11628 6056 c-15 -8 -40 -29 -56 -48 l-30 -33 -7 30 c-13 56 -12 56
-62 53 l-48 -3 -3 -281 -2 -282 22 -6 c34 -9 77 -7 97 4 17 8 19 27 20 186 2
172 3 178 27 209 30 40 69 57 120 53 l39 -3 3 53 c2 31 -2 60 -9 68 -15 18
-76 18 -111 0z"/>
<path d="M12699 6061 c-36 -11 -67 -29 -90 -52 -29 -29 -49 -24 -49 11 0 33
-23 44 -76 38 l-29 -3 -3 -384 c-2 -301 1 -386 10 -393 18 -11 76 -10 99 2 17
10 19 22 19 126 0 133 5 140 73 100 34 -20 57 -26 103 -26 85 0 145 39 182
118 25 53 27 67 27 187 0 127 -1 131 -31 185 -23 42 -41 60 -75 77 -45 23
-111 28 -160 14z m72 -121 c60 -33 81 -195 36 -281 -17 -32 -34 -48 -61 -58
-36 -14 -41 -13 -82 9 -66 35 -84 71 -84 169 l0 82 46 44 c39 38 52 45 86 45
21 0 48 -5 59 -10z"/>
<path d="M13213 6053 c-139 -41 -215 -249 -153 -417 28 -74 49 -97 113 -129
48 -23 68 -27 144 -27 104 0 155 19 214 80 48 49 69 118 69 226 0 100 -25 175
-72 221 -62 59 -203 79 -315 46z m187 -112 c47 -34 64 -77 64 -166 0 -89 -21
-139 -71 -172 -31 -21 -116 -20 -149 2 -51 33 -75 137 -55 235 15 69 36 97 86
115 46 16 89 11 125 -14z"/>
<path d="M11824 6047 c-3 -8 -4 -116 -2 -240 3 -211 4 -227 24 -254 39 -53 81
-73 151 -73 66 0 101 12 159 57 27 20 33 21 44 8 7 -8 10 -22 6 -30 -8 -22 34
-39 78 -31 l36 7 0 278 c0 310 5 291 -70 291 -73 0 -70 8 -70 -194 0 -200 -2
-207 -64 -245 -18 -12 -47 -21 -64 -21 -85 0 -95 28 -102 265 l-5 190 -58 3
c-42 2 -59 -1 -63 -11z"/>
<path d="M1588 4377 c-83 -70 -183 -157 -298 -262 -52 -46 -307 -251 -356
-285 -28 -19 -136 -100 -148 -111 -5 -4 20 -69 54 -143 l63 -136 -17 -58 c-9
-31 -44 -156 -78 -277 -33 -121 -71 -258 -84 -305 -14 -47 -35 -125 -48 -175
-37 -140 -74 -266 -90 -310 -8 -22 -15 -47 -16 -56 0 -9 -11 -51 -24 -95 -41
-135 -78 -266 -93 -334 -9 -36 -21 -81 -29 -100 -7 -19 -21 -69 -30 -110 -9
-41 -20 -83 -25 -92 -5 -9 -15 -45 -23 -80 -7 -35 -26 -106 -40 -158 -15 -52
-38 -135 -52 -185 -14 -49 -31 -110 -39 -135 -7 -25 -35 -121 -60 -215 -26
-93 -56 -200 -68 -237 -11 -37 -18 -71 -14 -74 8 -9 19 -3 228 121 56 33 123
71 148 85 90 50 131 80 131 98 0 9 16 73 35 142 56 198 95 339 115 415 24 88
48 177 93 335 19 69 47 170 62 225 14 55 37 136 50 180 14 44 29 98 34 120 5
22 22 87 39 145 17 58 54 185 81 282 54 191 75 248 89 248 15 0 105 -215 213
-509 28 -75 59 -158 69 -186 10 -27 35 -95 55 -150 19 -55 44 -122 54 -150 11
-27 22 -61 26 -75 4 -14 13 -40 22 -58 8 -19 23 -61 33 -95 28 -95 90 -271 99
-280 14 -14 54 18 112 91 30 37 83 99 119 137 36 39 101 111 146 160 97 108
283 313 304 335 8 9 53 59 100 111 47 51 128 139 180 193 52 55 102 107 110
116 8 9 58 65 110 125 126 144 292 320 302 320 4 0 9 -3 9 -8 4 -19 -14 -119
-31 -182 -25 -88 -56 -208 -79 -305 -10 -41 -40 -151 -65 -245 -26 -93 -58
-210 -71 -260 -13 -49 -38 -139 -56 -200 -17 -60 -39 -139 -49 -175 -27 -99
-125 -439 -226 -788 -31 -106 -53 -200 -50 -208 5 -13 18 -14 78 -8 64 6 520
8 638 2 58 -3 107 21 180 89 65 60 69 69 104 208 44 179 136 536 213 825 14
52 33 127 43 165 10 39 34 131 55 205 20 74 47 176 60 225 26 101 43 165 85
310 16 55 43 152 60 215 17 63 40 142 50 175 10 33 31 105 48 160 36 119 94
317 129 435 31 108 78 264 108 360 27 86 75 246 100 336 10 34 16 67 13 74 -3
10 -60 12 -238 12 -129 0 -248 -1 -265 -1 -30 -1 -69 -38 -201 -188 -28 -32
-116 -130 -195 -217 -215 -239 -309 -343 -364 -406 -238 -272 -324 -369 -411
-464 -55 -61 -147 -163 -204 -226 -190 -211 -251 -273 -260 -264 -7 8 -78 164
-196 434 -13 30 -40 98 -59 150 -53 139 -85 221 -101 255 -7 17 -27 66 -43
110 -16 44 -43 114 -61 155 -17 41 -40 102 -52 135 -11 33 -23 65 -28 70 -4 6
-15 34 -24 64 -9 29 -20 59 -24 65 -5 6 -40 107 -78 223 -50 153 -73 213 -84
212 -8 0 -54 -33 -102 -72z"/>
<path d="M8275 4397 c-44 -26 -132 -97 -173 -139 -46 -48 -40 -31 -107 -313
-19 -82 -46 -193 -60 -245 -13 -52 -47 -185 -74 -295 -51 -207 -79 -315 -130
-495 -16 -58 -48 -172 -71 -255 -50 -181 -116 -405 -136 -460 -7 -22 -21 -67
-29 -100 -9 -33 -38 -130 -64 -215 -42 -133 -109 -354 -207 -690 -55 -186 -65
-219 -94 -313 -16 -53 -30 -105 -30 -115 0 -17 32 -68 77 -126 12 -15 37 -31
55 -35 54 -12 658 -13 1048 -1 672 20 956 67 1267 210 264 123 544 402 648
648 66 156 104 329 105 467 0 185 -49 306 -175 431 -114 114 -240 188 -396
234 -128 38 -157 73 -71 86 127 18 413 165 582 300 167 133 285 306 356 524
24 75 28 100 28 215 -1 120 -3 135 -29 200 -65 160 -216 298 -400 368 -27 10
-54 22 -60 27 -11 9 -183 43 -305 60 -41 6 -172 17 -290 25 -280 19 -1235 20
-1265 2z m932 -303 c176 -37 330 -131 407 -247 47 -72 86 -201 86 -286 0 -136
-58 -291 -179 -477 -66 -102 -137 -167 -269 -247 -168 -101 -423 -184 -601
-194 l-94 -6 5 34 c3 19 14 66 25 104 11 39 37 129 57 200 21 72 44 153 51
180 8 28 26 88 39 135 24 86 33 116 129 435 30 99 60 204 67 233 6 28 16 55
21 58 5 3 9 14 9 24 0 29 21 69 39 73 26 7 130 -3 208 -19z m-567 -1714 c63
-11 153 -27 200 -34 156 -26 287 -88 397 -191 79 -73 116 -134 139 -231 14
-59 14 -81 4 -154 -12 -86 -55 -211 -105 -310 -108 -213 -344 -388 -635 -472
-236 -68 -521 -118 -547 -96 -17 14 -17 21 11 113 13 44 43 150 66 235 23 85
46 171 51 190 6 19 18 69 28 110 18 73 56 219 108 410 14 52 32 122 40 155 8
33 26 97 39 141 13 45 24 87 24 92 0 6 4 22 10 36 12 32 20 32 170 6z"/>
<path d="M4937 3830 c-40 -12 -154 -116 -177 -159 -10 -21 -31 -91 -45 -157
-71 -320 -242 -979 -345 -1334 -33 -113 -60 -210 -60 -217 0 -6 -11 -47 -25
-90 -13 -43 -36 -118 -50 -168 -15 -49 -37 -124 -50 -165 -12 -41 -40 -131
-60 -200 -20 -69 -62 -204 -92 -300 -81 -256 -113 -363 -113 -379 0 -12 37
-13 238 -8 130 3 286 2 347 -2 125 -10 138 -7 209 52 72 60 94 87 104 127 5
19 24 98 42 175 49 208 150 606 199 780 10 39 32 120 49 180 16 61 62 225 102
365 40 140 78 275 85 300 38 134 110 379 140 475 19 61 59 196 90 300 31 105
69 235 85 289 17 54 30 110 30 124 l0 25 -87 -7 c-113 -8 -427 -10 -518 -2
-38 3 -83 1 -98 -4z"/>
<path d="M6160 3824 c-15 -7 -49 -32 -76 -58 -27 -25 -52 -46 -57 -46 -11 0
-26 -43 -59 -170 -16 -63 -33 -131 -39 -150 -5 -19 -13 -53 -18 -75 -5 -22
-27 -110 -50 -195 -53 -201 -66 -253 -80 -320 -6 -30 -22 -95 -36 -145 -14
-49 -38 -137 -54 -195 -51 -183 -93 -326 -183 -625 -17 -55 -41 -136 -53 -180
-12 -44 -39 -136 -60 -205 -20 -69 -52 -177 -70 -240 -17 -63 -53 -186 -78
-273 -26 -88 -47 -167 -47 -177 0 -10 11 -31 24 -47 12 -15 28 -38 34 -49 l12
-22 807 2 808 1 62 94 c34 51 79 114 100 140 49 58 87 120 79 128 -3 3 -124 1
-268 -6 -379 -16 -767 -15 -774 3 -7 18 6 81 46 226 17 63 51 192 75 285 24
94 53 204 65 245 11 41 28 107 36 145 8 39 23 97 33 130 10 33 33 116 51 185
47 177 157 565 179 630 11 30 36 116 56 190 20 74 47 167 59 205 34 102 81
257 111 360 15 50 35 114 47 142 11 29 18 58 16 64 -5 16 -660 19 -698 3z"/>
<path d="M11226 3791 c-21 -11 -50 -31 -65 -45 -14 -14 -40 -38 -58 -53 -36
-32 -66 -105 -83 -203 -13 -73 -162 -666 -210 -835 -41 -145 -79 -278 -97
-340 -9 -27 -26 -90 -38 -140 -13 -49 -35 -130 -49 -180 -13 -49 -33 -121 -44
-160 -37 -133 -83 -287 -107 -354 -13 -36 -37 -113 -55 -171 -17 -58 -40 -130
-50 -160 -67 -199 -123 -407 -114 -423 4 -7 22 -35 41 -64 l34 -51 370 0 c366
1 369 1 374 22 2 12 13 71 25 131 11 61 36 180 55 265 19 85 37 173 40 195 6
37 35 166 71 315 9 36 22 93 30 127 20 93 62 206 81 221 10 7 50 12 104 12 79
0 90 -2 117 -25 17 -14 37 -44 45 -68 9 -23 41 -107 72 -187 31 -80 69 -181
85 -225 64 -178 123 -346 160 -455 51 -152 118 -340 129 -365 5 -11 15 -37 21
-58 6 -20 16 -37 21 -37 9 0 118 86 255 199 46 38 60 49 164 127 204 152 351
254 368 254 6 0 12 7 12 16 0 17 -104 222 -199 393 -75 135 -122 223 -195 368
-102 204 -113 238 -78 249 83 25 142 56 270 140 197 129 380 426 453 734 18
73 17 271 -1 335 -31 113 -76 192 -152 268 -87 87 -167 133 -303 174 -187 58
-298 66 -910 70 -532 3 -551 3 -589 -16z m840 -276 c184 -69 295 -189 331
-358 20 -94 12 -246 -17 -342 -75 -246 -262 -483 -460 -584 -141 -72 -463
-154 -492 -126 -6 6 5 49 62 235 49 161 78 262 128 435 82 282 143 492 163
555 11 36 29 96 40 134 11 38 23 74 26 79 10 16 151 -2 219 -28z"/>
</g>
</svg>
