<svg width="15" height="17" viewBox="0 0 15 17" fill="none" xmlns="http://www.w3.org/2000/svg">
<path d="M13.3761 15.224L13.376 15.2243L13.3759 15.2244L13.3759 15.2246L13.3511 15.2786C13.337 15.2905 13.3154 15.3069 13.2837 15.3268C13.0936 15.4463 12.6166 15.646 11.5212 15.7836C9.32027 16.0603 5.18768 16 3.29396 15.783C2.4392 15.6851 2.09595 15.3858 1.95368 15.1935C1.87725 15.0902 1.84156 14.9948 1.82479 14.9306C1.81638 14.8985 1.81287 14.8746 1.81149 14.8624C1.81124 14.8603 1.81106 14.8585 1.81094 14.8572V14.7698L1.77444 14.6799L1.77441 14.6798L1.77434 14.6796L1.77423 14.6794L1.77409 14.679L1.77174 14.6731L1.76098 14.6452C1.75127 14.6196 1.73676 14.5805 1.71884 14.5293C1.68294 14.4269 1.63357 14.2771 1.58164 14.0922C1.4772 13.7205 1.36529 13.2173 1.32824 12.6793C1.25261 11.5812 1.49039 10.5021 2.51493 9.93871C3.1054 9.61399 3.5497 9.50325 3.90862 9.49283C4.26694 9.48244 4.58395 9.57045 4.93067 9.71496C5.06682 9.7717 5.212 9.84089 5.36761 9.91505C5.97157 10.2029 6.73248 10.5655 7.73131 10.5655C8.38298 10.5655 8.91401 10.4002 9.37018 10.2019C9.58549 10.1083 9.78809 10.0055 9.97175 9.91231L9.9946 9.90071C10.1892 9.80198 10.3612 9.71551 10.5319 9.64435C10.8644 9.50578 11.1607 9.43914 11.4967 9.48787C11.8406 9.53776 12.2834 9.71715 12.8836 10.1792C13.8706 10.9392 14.0389 12.1246 13.9088 13.2394C13.8447 13.7879 13.7106 14.2878 13.5911 14.6526C13.5316 14.8342 13.4765 14.9801 13.4368 15.0794C13.417 15.129 13.401 15.1668 13.3904 15.1914L13.3788 15.2181L13.3762 15.2238L13.3761 15.224Z" stroke="white"/>
<circle cx="7.29032" cy="4.54178" r="3.24857" stroke="white"/>
</svg>
